<svg xmlns="http://www.w3.org/2000/svg" version="1.1" xmlns:xlink="http://www.w3.org/1999/xlink" width="512" height="512" x="0" y="0" viewBox="0 0 64 64" style="enable-background:new 0 0 512 512" xml:space="preserve" class=""><g><path d="M47 51.97c-.55 0-1 .45-1 1 0 3.32-2.71 6.03-6.03 6.03H14.03C10.71 59 8 56.29 8 52.97V11.03C8 7.71 10.71 5 14.03 5h25.94C43.29 5 46 7.71 46 11.03V21c0 .55.45 1 1 1s1-.45 1-1v-9.97C48 6.6 44.4 3 39.97 3H14.03C9.6 3 6 6.6 6 11.03v41.94C6 57.4 9.6 61 14.03 61h25.94C44.4 61 48 57.4 48 52.97c0-.55-.45-1-1-1z" fill="#000000" opacity="1" data-original="#000000" class=""></path><path d="M43 22c.55 0 1-.45 1-1v-9c0-.55-.45-1-1-1H11c-.55 0-1 .45-1 1v40c0 .55.45 1 1 1h32c.55 0 1-.45 1-1s-.45-1-1-1H12V13h30v8c0 .55.45 1 1 1z" fill="#000000" opacity="1" data-original="#000000" class=""></path><circle cx="27" cy="8" r="2" fill="#000000" opacity="1" data-original="#000000" class=""></circle><path d="M23 55c-.55 0-1 .45-1 1s.45 1 1 1h8c.55 0 1-.45 1-1s-.45-1-1-1zM36 25c0-.55-.45-1-1-1h-7c-.47 0-.87.33-.98.78l-.86 3.86-2.18-13.8c-.07-.47-.47-.83-.95-.84s-.9.31-1.01.77l-2.48 10.74-.71-1.07c-.18-.27-.5-.44-.83-.44h-4c-.55 0-1 .45-1 1s.45 1 1 1h3.46l1.7 2.55c.22.33.62.5 1.01.43s.71-.37.79-.76l1.84-7.98L25 34.15c.07.47.48.83.96.84h.03c.47 0 .87-.32.98-.78L28.8 26H35c.55 0 1-.45 1-1zM57 34h-1.42c-.23-.82-.56-1.61-.98-2.35l1.01-1.01a.996.996 0 0 0 0-1.41l-2.83-2.83a.996.996 0 0 0-1.41 0l-1.01 1.01c-.75-.42-1.54-.75-2.35-.98V25c0-.55-.45-1-1-1h-4c-.55 0-1 .45-1 1v1.42c-.82.23-1.61.56-2.35.98l-1.01-1.01a.996.996 0 0 0-1.41 0l-2.83 2.83a.996.996 0 0 0 0 1.41l1.01 1.01c-.42.75-.75 1.54-.98 2.35H33c-.55 0-1 .45-1 1v4c0 .55.45 1 1 1h1.42c.23.82.56 1.61.98 2.35l-1.01 1.01a.996.996 0 0 0 0 1.41l2.83 2.83c.39.39 1.02.39 1.41 0l1.01-1.01c.75.42 1.54.75 2.35.98V49c0 .55.45 1 1 1h4c.55 0 1-.45 1-1v-1.42c.82-.23 1.61-.56 2.35-.98l1.01 1.01c.39.39 1.02.39 1.41 0l2.83-2.83a.996.996 0 0 0 0-1.41l-1.01-1.01c.42-.75.75-1.54.98-2.35H57c.55 0 1-.45 1-1v-4c0-.56-.45-1.01-1-1.01zm-1 4h-1.2c-.47 0-.88.33-.98.8a8.814 8.814 0 0 1-1.32 3.15 1 1 0 0 0 .13 1.26l.86.86-1.41 1.41-.86-.86a1 1 0 0 0-1.26-.13c-.97.64-2.03 1.09-3.15 1.32-.46.1-.8.5-.8.98V48h-2v-1.2c0-.47-.33-.88-.8-.98a8.814 8.814 0 0 1-3.15-1.32 1 1 0 0 0-1.26.13l-.86.86-1.41-1.41.86-.86a1 1 0 0 0 .13-1.26 8.997 8.997 0 0 1-1.32-3.15c-.1-.47-.5-.8-.98-.8H34v-2h1.2c.47 0 .88-.33.98-.8.23-1.12.67-2.18 1.32-3.15a1 1 0 0 0-.13-1.26l-.86-.86 1.41-1.41.86.86a1 1 0 0 0 1.26.13c.97-.64 2.03-1.09 3.15-1.32.46-.1.8-.5.8-.98V26h2v1.2c0 .47.33.88.8.98 1.12.23 2.18.67 3.15 1.32a1 1 0 0 0 1.26-.13l.86-.86 1.41 1.41-.86.86a1 1 0 0 0-.13 1.26c.64.97 1.09 2.03 1.32 3.15.1.47.5.8.98.8H56z" fill="#000000" opacity="1" data-original="#000000" class=""></path><path d="M45 33c-2.21 0-4 1.79-4 4s1.79 4 4 4 4-1.79 4-4-1.79-4-4-4zm0 6c-1.1 0-2-.9-2-2s.9-2 2-2 2 .9 2 2-.9 2-2 2zM15 37h4c.55 0 1-.45 1-1s-.45-1-1-1h-4c-.55 0-1 .45-1 1s.45 1 1 1zM28 40c0-.55-.45-1-1-1H15c-.55 0-1 .45-1 1s.45 1 1 1h12c.55 0 1-.45 1-1zM15 45h3c.55 0 1-.45 1-1s-.45-1-1-1h-3c-.55 0-1 .45-1 1s.45 1 1 1zM22 43h-1c-.55 0-1 .45-1 1s.45 1 1 1h1c.55 0 1-.45 1-1s-.45-1-1-1zM31 44c0-.55-.45-1-1-1h-5c-.55 0-1 .45-1 1s.45 1 1 1h5c.55 0 1-.45 1-1zM15 49h7c.55 0 1-.45 1-1s-.45-1-1-1h-7c-.55 0-1 .45-1 1s.45 1 1 1zM26 47c-.55 0-1 .45-1 1s.45 1 1 1h1c.55 0 1-.45 1-1s-.45-1-1-1zM30 49h1c.55 0 1-.45 1-1s-.45-1-1-1h-1c-.55 0-1 .45-1 1s.45 1 1 1z" fill="#000000" opacity="1" data-original="#000000" class=""></path></g></svg>